# xmcd
#
# Track frame offsets:
#	150
#	17127
#	34300
#	49075
#	67065
#	87107
#	106130
#	129157
#	144100
#	158180
#	179830
#	199230
#	216680
#	262822
#	282312
#
# Disc length: 4010 seconds
#
# Revision: 0
# Processed by: cddbd v1.5.2PL0 Copyright (c) Steve Scherf et al.
# Submitted via: EasyCDDAExtractor 16.0.9.1
#
DISCID=de0fa80f
DTITLE=Artistas Varios - ROCK and PEPSI
DYEAR=1994
DGENRE=Other
TTITLE0=Absolutely Fabulous (7" Mix) (PET SHOP BOYS)
TTITLE1=Eleven Long Years ()US3
TTITLE2=Trouble  (SHAMPOO)
TTITLE3=Fireworks (ROXETTE)
TTITLE4=Taht's The Way Love Goes(JANET JACKSON)
TTITLE5=Return To Innocence (ENIGMA)
TTITLE6=Here Comes A Mane (TRAFIC)
TTITLE7=Locked Out (CROWDED HOUSE)
TTITLE8=Parklife (BLUR)
TTITLE9=The Simple Things (JOE COCKER)
TTITLE10=Maybe Love (STEVIE NICKS)
TTITLE11=Silent Scream (RICHAR MARX) 
TTITLE12=Objet In The Rear View Mirror May Appear Closer Than They Are (MEAT L
TTITLE12=OAF)
TTITLE13=Get Off This (CRACKER)
TTITLE14=Rocket (SMASHING PUMPKINS)
EXTD=
EXTT0=
EXTT1=
EXTT2=
EXTT3=
EXTT4=
EXTT5=
EXTT6=
EXTT7=
EXTT8=
EXTT9=
EXTT10=
EXTT11=
EXTT12=
EXTT13=
EXTT14=
PLAYORDER=
